<svg id="Capa_1" enable-background="new 0 0 511.997 511.997" height="512" viewBox="0 0 511.997 511.997" width="512" xmlns="http://www.w3.org/2000/svg"><g><path d="m487.063 248.436c0-70.6-100.98-192.611-149.065-243.719-5.936-6.31-16.004-6.295-21.917.072-1.417 1.526-31.763 34.31-64.686 77.666-18.538-21.763-31.559-35.695-32.518-36.718-5.928-6.324-15.968-6.314-21.887 0-1.739 1.855-43.064 46.072-85.087 102.506-57.708 77.497-86.969 137.975-86.969 179.753 0 101.458 82.093 184 183 184 75.854 0 141.071-46.646 168.782-112.905 65.345-21.283 110.347-82.169 110.347-150.655zm-279.13 233.561c-84.364 0-153-69.084-153-154 0-66.059 101.872-192.962 153.002-249.806 45.71 50.805 152.998 181.795 152.998 249.806 0 18.543-3.274 36.33-9.269 52.808-.208.474-.389.96-.548 1.454-21.849 58.22-77.785 99.738-143.183 99.738zm179.861-120.029c2.053-11.014 3.139-22.367 3.139-33.971 0-67.486-77.012-169.289-119.817-221.863 21.949-29.32 43.604-54.667 56.104-68.852 55.913 61.802 129.843 160.72 129.843 211.154 0 48.063-27.43 91.525-69.269 113.532z"/><path d="m245.327 261.39-96 96c-5.858 5.858-5.858 15.355 0 21.213 5.857 5.857 15.355 5.858 21.213 0l96-96c5.858-5.858 5.858-15.355 0-21.213s-15.356-5.858-21.213 0z"/><path d="m153.223 282.926c1.648 7.942 9.178 13.364 17.64 11.78 8.097-1.689 13.337-9.326 11.78-17.64-1.851-8.875-10.659-13.922-19.07-11.42-7.982 2.602-11.712 10.043-10.35 17.28z"/><path d="m262.643 357.066c-1.867-8.909-10.688-13.914-19.07-11.42-8.586 2.798-12.207 11.273-9.99 18.71 2.815 8.637 11.396 12.215 18.7 9.99 7.726-2.463 11.754-9.832 10.36-17.28z"/></g></svg>